<svg version="1.1" id="Layer_1" xmlns="http://www.w3.org/2000/svg" xmlns:xlink="http://www.w3.org/1999/xlink" viewBox="0 0 512 512" xml:space="preserve" fill="#000000" transform="matrix(1, 0, 0, -1, 0, 0)rotate(-45)"><g id="SVGRepo_bgCarrier" stroke-width="0"></g><g id="SVGRepo_tracerCarrier" stroke-linecap="round" stroke-linejoin="round"></g><g id="SVGRepo_iconCarrier"> <g> <path style="fill:#38bdf8;" d="M246.878,71.065c-7.749,0-14.031-6.282-14.031-14.031V14.031C232.847,6.282,239.129,0,246.878,0 c7.749,0,14.031,6.282,14.031,14.031v43.003C260.909,64.783,254.627,71.065,246.878,71.065z"></path> <path style="fill:#38bdf8;" d="M189.485,94.839c-3.59,0-7.182-1.369-9.921-4.11l-30.408-30.408c-5.479-5.479-5.479-14.363,0-19.844 c5.479-5.479,14.363-5.479,19.844,0l30.408,30.408c5.479,5.479,5.479,14.363,0,19.844 C196.666,93.469,193.075,94.839,189.485,94.839z"></path> <path style="fill:#38bdf8;" d="M371.048,152.232h-43.003c-7.749,0-14.031-6.282-14.031-14.031c0-7.749,6.282-14.031,14.031-14.031 h43.003c7.749,0,14.031,6.282,14.031,14.031C385.079,145.95,378.797,152.232,371.048,152.232z"></path> <path style="fill:#38bdf8;" d="M165.711,152.232h-43.003c-7.749,0-14.031-6.282-14.031-14.031c0-7.749,6.282-14.031,14.031-14.031 h43.003c7.749,0,14.031,6.282,14.031,14.031C179.742,145.95,173.46,152.232,165.711,152.232z"></path> <path style="fill:#38bdf8;" d="M304.271,94.839c-3.59,0-7.182-1.369-9.921-4.11c-5.479-5.479-5.479-14.363,0-19.844l30.408-30.408 c5.479-5.479,14.363-5.479,19.844,0c5.48,5.479,5.479,14.363,0,19.844l-30.409,30.408 C311.453,93.469,307.861,94.839,304.271,94.839z"></path> </g> <rect x="196.965" y="425.092" style="fill:#7dd3fc;" width="176.353" height="72.877"></rect> <g> <path style="fill:#38bdf8;" d="M373.324,512H196.97c-7.749,0-14.031-6.282-14.031-14.031v-72.876 c0-7.749,6.282-14.031,14.031-14.031h176.352c7.749,0,14.031,6.282,14.031,14.031v72.876C387.354,505.718,381.073,512,373.324,512z M211.001,483.938h148.29v-44.814h-148.29V483.938z"></path> <path style="fill:#38bdf8;" d="M187.96,383.514c-5.831,0-11.278-3.665-13.273-9.49l-32.152-93.903 c-0.031-0.093-0.062-0.185-0.093-0.279c-6.787-21.267,4.988-44.1,26.247-50.898c10.308-3.293,21.276-2.373,30.889,2.583 c9.617,4.958,16.723,13.363,20.014,23.667l12.587,39.17c2.37,7.377-1.688,15.28-9.065,17.651c-7.376,2.37-15.28-1.688-17.651-9.065 l-12.595-39.195c-1.017-3.185-3.198-5.762-6.15-7.285c-2.953-1.524-6.322-1.806-9.488-0.794c-6.486,2.074-10.098,9.02-8.09,15.522 l32.096,93.737c2.51,7.331-1.399,15.309-8.73,17.819C191,383.27,189.468,383.514,187.96,383.514z"></path> <path style="fill:#38bdf8;" d="M389.292,383.51c-7.749,0-14.031-6.282-14.031-14.031V257.903c0-7.229-5.88-13.11-13.11-13.11 h-90.405c-7.749,0-14.031-6.282-14.031-14.031V122.69c0-6.855-5.577-12.431-12.433-12.431c-6.855,0-12.431,5.577-12.431,12.431 v77.186c0,7.749-6.282,14.031-14.031,14.031c-7.749,0-14.031-6.282-14.031-14.031V122.69c0-22.329,18.166-40.493,40.493-40.493 c22.329,0,40.494,18.166,40.494,40.493v94.042h76.374c22.702,0,41.172,18.47,41.172,41.172v111.576 C403.323,377.228,397.041,383.51,389.292,383.51z"></path> </g> </g></svg>