<?xml version="1.0" encoding="iso-8859-1"?>
<!-- Uploaded to: SVG Repo, www.svgrepo.com, Generator: SVG Repo Mixer Tools -->
<svg height="800px" width="800px" version="1.1" id="Layer_1" xmlns="http://www.w3.org/2000/svg" xmlns:xlink="http://www.w3.org/1999/xlink" 
	 viewBox="0 0 512.002 512.002" xml:space="preserve">
<polygon style="fill:#F954EF;" points="8.018,247.45 418.473,247.45 418.473,418.473 "/>
<polygon style="fill:#4ACFD9;" points="8.018,247.45 392.819,153.387 238.899,119.183 "/>
<polygon style="fill:#F984EF;" points="392.819,153.387 392.819,307.308 8.018,247.45 "/>
<polygon style="fill:#4ACFD9;" points="8.018,247.45 435.575,247.45 503.984,375.717 "/>
<g>
	<path style="fill:#F954EF;" d="M469.78,84.444H358.615c-4.427,0-8.017-3.588-8.017-8.017c0-4.428,3.589-8.017,8.017-8.017H469.78
		c4.427,0,8.017,3.588,8.017,8.017C477.796,80.855,474.208,84.444,469.78,84.444z"/>
	<path style="fill:#F954EF;" d="M281.655,443.592H170.49c-4.427,0-8.017-3.588-8.017-8.017s3.589-8.017,8.017-8.017h111.165
		c4.427,0,8.017,3.588,8.017,8.017S286.083,443.592,281.655,443.592z"/>
	<path style="fill:#F954EF;" d="M427.024,50.239H264.552c-4.427,0-8.017-3.588-8.017-8.017s3.589-8.017,8.017-8.017h162.472
		c4.427,0,8.017,3.588,8.017,8.017S431.452,50.239,427.024,50.239z"/>
	<path style="fill:#F954EF;" d="M392.819,477.796H230.348c-4.427,0-8.017-3.588-8.017-8.017s3.589-8.017,8.017-8.017h162.472
		c4.427,0,8.017,3.588,8.017,8.017S397.248,477.796,392.819,477.796z"/>
</g>
</svg>